<svg xmlns="http://www.w3.org/2000/svg" width="463" height="86" viewBox="0 0 463 86">
  <g fill="none" fill-rule="evenodd" transform="translate(.463 .44)">
    <path fill="#77531F" d="M439.3685 62.263C437.5285 67.526 434.3615 69.679 429.3585 69.679 422.6895 69.679 421.3305 64.895 422.8515 58.315L460.8685 58.315 461.4515 55.086C465.0815 34.99 455.8965 21.832 436.9995 21.832 428.8845 21.832 419.6735 24.822 412.7265 31.282 406.3325 37.143 401.7115 46.115 400.2205 54.368 398.6435 63.101 400.3555 71.474 405.4105 77.335 410.7565 83.436 418.5255 85.349 426.8625 85.349 440.3125 85.349 453.7715 78.531 459.8965 63.699L439.3685 62.263zM424.9005 46.354C425.6935 40.732 428.9135 35.827 434.6945 35.827 440.9195 35.827 441.8765 40.373 440.7965 46.354L424.9005 46.354 424.9005 46.354zM235.7705 62.263C233.9305 67.526 230.7635 69.679 225.7605 69.679 219.0915 69.679 217.7325 64.895 219.2535 58.315L257.2705 58.315 257.8545 55.086C261.4835 34.99 252.2985 21.832 233.4015 21.832 225.2865 21.832 216.0755 24.822 209.1295 31.282 202.7345 37.143 198.1135 46.115 196.6225 54.368 195.0455 63.101 196.7575 71.474 201.8125 77.335 207.1585 83.436 214.9275 85.349 223.2645 85.349 236.7155 85.349 250.1745 78.531 256.2985 63.699L235.7705 62.263zM221.3025 46.354C222.0955 40.732 225.3155 35.827 231.0965 35.827 237.3215 35.827 238.2785 40.373 237.1985 46.354L221.3025 46.354 221.3025 46.354zM94.1625 53.251C94.1625 53.251 105.4375 21.607 132.4445 21.607 156.6785 21.607 165.3155 53.251 165.3155 53.251 165.3155 53.251 153.9715 85.349 127.3525 85.349 105.8925 85.349 96.9355 66.914 94.1625 53.251zM109.8325 53.436C109.8325 53.436 116.0865 35.356 131.0675 35.356 144.5105 35.356 149.3015 53.436 149.3015 53.436 149.3015 53.436 143.0085 71.775 128.2425 71.775 116.3395 71.775 111.3705 61.242 109.8325 53.436zM119.1685 54.217C119.1685 47.845 124.1455 42.68 130.2845 42.68 136.4245 42.68 141.4005 47.845 141.4005 54.217 141.4005 60.589 136.4245 65.754 130.2845 65.754 124.1455 65.754 119.1685 60.589 119.1685 54.217L119.1685 54.217z"/>
    <polyline fill="#4D4E4C" points="205.875 16.831 209.196 16.831 212.208 .639 208.887 .639 205.875 16.831"/>
    <path fill="#4D4E4C" d="M217.1075,4.841 L213.7865,4.841 L211.5565,16.831 L214.8775,16.831 L217.1075,4.841 Z M217.9325,0.404 L214.6115,0.404 L213.9885,3.755 L217.3095,3.755 L217.9325,0.404 L217.9325,0.404 Z"/>
    <polyline fill="#4D4E4C" points="234.785 4.841 232.163 4.841 228.874 12.205 228.828 12.205 228.548 4.841 225.499 4.841 222.393 12.182 222.349 12.182 221.885 4.841 218.337 4.841 219.654 16.831 222.5 16.831 225.716 9.137 225.762 9.137 226.115 16.831 229.097 16.831 234.785 4.841"/>
    <path fill="#4D4E4C" d="M245.0525,11.426 C245.3785,9.798 245.4465,8.098 244.7515,6.729 C244.0575,5.36 242.5485,4.605 240.9445,4.605 C237.3745,4.605 234.8325,7.461 234.1745,11.001 C233.5115,14.566 235.2825,17.068 238.7175,17.068 C242.6025,17.068 244.5945,13.527 244.7045,12.937 L241.6755,12.701 C241.4695,13.81 240.3075,14.589 239.2915,14.589 C237.8445,14.589 237.2925,13.433 237.5555,12.016 L237.6875,11.426 L245.0525,11.426 Z M238.0465,9.373 C238.4145,8.004 239.1905,6.871 240.6585,6.871 C242.1045,6.871 242.2875,8.075 242.1135,9.373 L238.0465,9.373 L238.0465,9.373 Z"/>
    <polyline fill="#4D4E4C" points="245.774 16.831 249.096 16.831 252.107 .639 248.786 .639 245.774 16.831"/>
    <path fill="#4D4E4C" d="M261.6225 16.831C261.5515 16.241 261.6155 15.651 261.7295 15.038L262.7705 9.443C263.0375 8.004 263.3965 6.682 262.4065 5.691 261.6295 4.888 260.1455 4.605 258.9705 4.605 256.5535 4.605 253.6845 5.455 252.8055 8.358L255.8885 8.665C256.1085 7.484 257.1395 6.918 258.2015 6.918 258.6985 6.918 259.2325 7.083 259.4515 7.484 259.7075 7.933 259.5485 8.547 259.4515 9.066L259.3985 9.349C257.9715 9.491 256.1245 9.585 254.7175 10.104 253.0935 10.695 251.8075 11.898 251.4785 13.669 251.0575 15.935 252.4275 17.068 254.4615 17.068 256.1785 17.068 257.2995 16.383 258.5125 14.967 258.3755 15.581 258.3025 16.218 258.3235 16.831L261.6225 16.831zM258.9865 11.568C258.8285 12.418 258.7185 13.126 258.1045 13.881 257.6055 14.495 256.9255 14.873 256.2475 14.873 255.3215 14.873 254.8975 14.235 255.0735 13.291 255.3985 11.544 257.7825 11.238 259.0735 11.096L258.9865 11.568 258.9865 11.568zM279.7845 16.831L282.0155 4.841 278.6935 4.841 277.4955 11.285C277.3815 11.898 277.2985 12.583 276.9725 13.126 276.5465 13.834 275.8305 14.282 275.0855 14.282 273.9105 14.282 273.9915 13.362 274.1715 12.394L275.5765 4.841 272.2545 4.841 270.8505 12.394C270.6345 13.551 270.3565 14.684 270.7955 15.722 271.2495 16.808 272.1945 17.068 273.3475 17.068 274.9065 17.068 276.2255 16.289 277.0495 14.778L277.0945 14.778 276.7125 16.831 279.7845 16.831M284.1495 4.841L281.9185 16.831 285.2395 16.831 286.4205 10.482C286.6625 9.184 286.9275 7.39 288.6675 7.39 290.3845 7.39 289.8165 9.231 289.5835 10.482L288.4025 16.831 291.7235 16.831 292.9055 10.482C293.0235 9.845 293.1765 8.901 293.5305 8.334 293.8845 7.768 294.5605 7.414 295.1475 7.414 295.8475 7.414 296.3505 7.626 296.3905 8.381 296.4205 8.83 296.1555 10.01 296.0675 10.482L294.8865 16.831 298.2085 16.831 299.5995 9.349C299.8235 8.145 300.2365 6.776 299.6445 5.832 299.1245 4.983 298.0875 4.605 297.0705 4.605 295.6475 4.605 294.1915 5.266 293.3405 6.682 292.9265 5.266 292.1005 4.605 290.5865 4.605 289.0955 4.605 287.8655 5.266 287.0145 6.682L286.9695 6.682 287.3115 4.841 284.1495 4.841M305.7015 7.839L307.7355 7.839 308.2355 5.148 306.2025 5.148 306.2505 4.888C306.4395 3.873 306.5885 3.07 307.7735 3.141L308.8895 3.212 309.3855.545 307.8755.404C306.5875.285 304.9855.758 303.9935 1.961 303.2615 2.858 303.0745 4.109 302.8815 5.148L301.5485 5.148 301.0475 7.839 302.3805 7.839 300.7085 16.831 304.0295 16.831 305.7015 7.839M316.7145 16.831L318.9445 4.841 315.6235 4.841 314.4255 11.285C314.3105 11.898 314.2285 12.583 313.9015 13.126 313.4765 13.834 312.7605 14.282 312.0155 14.282 310.8405 14.282 310.9215 13.362 311.1005 12.394L312.5055 4.841 309.1845 4.841 307.7795 12.394C307.5645 13.551 307.2865 14.684 307.7255 15.722 308.1795 16.808 309.1245 17.068 310.2765 17.068 311.8355 17.068 313.1555 16.289 313.9785 14.778L314.0235 14.778 313.6425 16.831 316.7145 16.831"/>
    <polyline fill="#4D4E4C" points="318.985 16.831 322.305 16.831 325.317 .639 321.995 .639 318.985 16.831"/>
    <path fill="#4D4E4C" d="M334.8315 16.831C334.7605 16.241 334.8245 15.651 334.9395 15.038L335.9795 9.443C336.2475 8.004 336.6055 6.682 335.6155 5.691 334.8385 4.888 333.3545 4.605 332.1795 4.605 329.7625 4.605 326.8935 5.455 326.0145 8.358L329.0975 8.665C329.3175 7.484 330.3485 6.918 331.4105 6.918 331.9075 6.918 332.4425 7.083 332.6615 7.484 332.9165 7.933 332.7575 8.547 332.6605 9.066L332.6075 9.349C331.1805 9.491 329.3335 9.585 327.9265 10.104 326.3025 10.695 325.0165 11.898 324.6875 13.669 324.2665 15.935 325.6375 17.068 327.6705 17.068 329.3875 17.068 330.5095 16.383 331.7215 14.967 331.5845 15.581 331.5115 16.218 331.5325 16.831L334.8315 16.831zM332.1955 11.568C332.0375 12.418 331.9285 13.126 331.3135 13.881 330.8155 14.495 330.1345 14.873 329.4565 14.873 328.5305 14.873 328.1065 14.235 328.2825 13.291 328.6075 11.544 330.9915 11.238 332.2835 11.096L332.1955 11.568 332.1955 11.568zM352.9945 16.831L355.2245 4.841 351.9035 4.841 350.7045 11.285C350.5905 11.898 350.5085 12.583 350.1815 13.126 349.7555 13.834 349.0395 14.282 348.2945 14.282 347.1195 14.282 347.2005 13.362 347.3805 12.394L348.7855 4.841 345.4645 4.841 344.0595 12.394C343.8445 13.551 343.5655 14.684 344.0055 15.722 344.4585 16.808 345.4045 17.068 346.5565 17.068 348.1155 17.068 349.4355 16.289 350.2585 14.778L350.3035 14.778 349.9215 16.831 352.9945 16.831M361.2375 12.04C363.4295 12.04 366.4975 11.214 367.0245 8.381 367.2135 7.366 367.0515 6.776 366.5555 6.044 366.7815 5.313 367.4485 5.006 368.0815 5.006 368.3755 5.006 368.6555 5.077 368.9405 5.124L369.3575 2.882 368.4495 2.787C366.7315 2.787 365.9805 3.307 365.4165 5.124 364.4885 4.77 363.5015 4.605 362.4625 4.605 360.2255 4.605 357.0405 5.455 356.5005 8.358 356.2325 9.798 356.8395 10.789 357.9895 11.285 356.7455 11.78 355.4655 12.465 355.1895 13.952 354.9915 15.014 355.4605 15.651 356.2575 16.1 355.1745 16.336 354.0945 17.044 353.8665 18.271 353.3615 20.986 357.4375 21.056 359.2675 21.056 360.6225 21.056 362.2675 20.962 363.6105 20.419 365.0265 19.853 366.3355 18.767 366.6345 17.162 367.1215 14.542 364.9455 14.093 362.9565 13.976L361.5235 13.905C360.8735 13.881 359.6615 13.834 359.1055 13.669 358.7025 13.527 358.5285 13.244 358.6205 12.748 358.6955 12.347 358.9975 12.064 359.3485 11.875L361.2375 12.04zM362.0625 6.517C363.1015 6.517 363.9445 7.083 363.7205 8.287 363.4925 9.515 362.4745 10.128 361.3905 10.128 360.2835 10.128 359.6785 9.491 359.8985 8.311 360.1095 7.178 360.9995 6.517 362.0625 6.517zM362.2905 16.95C362.7565 16.997 363.4755 17.138 363.3565 17.776 363.1285 19.003 360.8375 18.932 360.0235 18.932 359.3005 18.932 358.2665 18.909 357.5825 18.696 357.1345 18.555 356.8215 18.295 356.9265 17.729 357.0145 17.257 357.3925 16.926 357.8295 16.761L362.2905 16.95 362.2905 16.95zM379.2855 9.208C379.5815 6.399 377.7915 4.605 375.1255 4.605 371.5105 4.605 368.8915 7.272 368.2065 10.954 367.5475 14.495 369.1255 17.068 372.6045 17.068 375.4055 17.068 377.8815 15.297 378.7055 12.323L375.5785 12.134C375.2585 13.244 374.4915 14.211 373.3165 14.211 371.4185 14.211 371.7825 12.134 372.0545 10.671 372.3395 9.137 372.9175 7.248 374.7475 7.248 375.9445 7.248 376.2895 8.311 376.0875 9.396L379.2855 9.208"/>
    <polyline fill="#4D4E4C" points="397.279 4.841 394.658 4.841 391.368 12.205 391.322 12.205 391.043 4.841 387.993 4.841 384.887 12.182 384.842 12.182 384.377 4.841 380.83 4.841 382.147 16.831 384.995 16.831 388.211 9.137 388.255 9.137 388.61 16.831 391.591 16.831 397.279 4.841"/>
    <path fill="#4D4E4C" d="M407.5465,11.426 C407.8725,9.798 407.9395,8.098 407.2455,6.729 C406.5515,5.36 405.0425,4.605 403.4385,4.605 C399.8685,4.605 397.3265,7.461 396.6685,11.001 C396.0055,14.566 397.7765,17.068 401.2105,17.068 C405.0965,17.068 407.0885,13.527 407.1975,12.937 L404.1695,12.701 C403.9625,13.81 402.8015,14.589 401.7845,14.589 C400.3385,14.589 399.7855,13.433 400.0495,12.016 L400.1815,11.426 L407.5465,11.426 Z M400.5405,9.373 C400.9085,8.004 401.6835,6.871 403.1525,6.871 C404.5985,6.871 404.7815,8.075 404.6075,9.373 L400.5405,9.373 L400.5405,9.373 Z"/>
    <polyline fill="#4D4E4C" points="408.269 16.831 411.589 16.831 414.601 .639 411.281 .639 408.269 16.831"/>
    <path fill="#4D4E4C" d="M425.2345,11.426 C425.5595,9.798 425.6275,8.098 424.9325,6.729 C424.2385,5.36 422.7295,4.605 421.1255,4.605 C417.5555,4.605 415.0135,7.461 414.3555,11.001 C413.6925,14.566 415.4645,17.068 418.8985,17.068 C422.7835,17.068 424.7755,13.527 424.8855,12.937 L421.8565,12.701 C421.6505,13.81 420.4885,14.589 419.4715,14.589 C418.0265,14.589 417.4725,13.433 417.7365,12.016 L417.8685,11.426 L425.2345,11.426 Z M418.2275,9.373 C418.5955,8.004 419.3715,6.871 420.8395,6.871 C422.2855,6.871 422.4685,8.075 422.2945,9.373 L418.2275,9.373 L418.2275,9.373 Z"/>
    <polyline fill="#77531F" points="199.709 2.095 177.7 2.095 162.881 84.154 184.891 84.154 199.709 2.095"/>
    <polyline fill="#77531F" points="405.043 23.028 389.591 23.028 376.298 52.933 374.586 23.028 358.134 23.028 345.729 52.933 345.507 52.933 343.572 23.028 321.673 23.028 328.976 84.154 344.76 84.154 358.414 51.019 358.637 51.019 359.99 84.154 375.997 84.154 405.043 23.028"/>
    <polyline fill="#77531F" points="309.36 68.962 284.125 68.962 314.433 35.947 316.765 23.028 269.632 23.028 266.933 37.981 281.717 37.981 288.875 37.741 258.88 70.876 256.483 84.154 306.615 84.154 309.36 68.962"/>
    <path fill="#77531F" d="M34.3565,66.809 C36.0315,80.924 46.9045,85.349 59.5765,85.349 C72.3595,85.349 89.7865,80.565 92.8325,63.699 C94.0205,57.12 92.2135,51.737 87.6375,48.148 C83.6195,45.158 77.9905,44.32 73.0075,43.603 C70.4045,43.244 66.0225,42.885 63.7065,42.167 C62.3265,41.808 60.5875,40.971 60.9335,39.057 C61.4085,36.425 66.8525,35.827 68.6305,35.827 C72.5215,35.827 76.6405,37.024 77.5525,41.21 L94.9635,37.741 C93.2585,26.258 82.8305,21.832 72.1585,21.832 C65.8225,21.832 59.3135,22.789 53.0855,26.497 C47.1025,30.086 42.6625,35.588 41.4095,42.526 C38.4715,58.794 52.1355,61.306 63.7055,63.101 C65.6635,63.34 73.1145,63.938 72.5525,67.048 C71.9045,70.636 65.6365,70.876 63.4125,70.876 C58.6335,70.876 52.6485,70.158 52.4845,64.297 L34.3565,66.809"/>
    <polyline fill="#77531F" points="39.77 2.095 16.204 2.095 1.386 84.154 24.951 84.154 39.77 2.095"/>
    <polyline fill="#1A1919" points="198.779 1.244 176.768 1.244 161.95 83.302 183.959 83.302 198.779 1.244"/>
    <polyline fill="#1A1919" points="404.111 22.177 388.661 22.177 375.368 52.081 373.654 22.177 357.202 22.177 344.798 52.081 344.575 52.081 342.639 22.177 320.741 22.177 328.043 83.302 343.829 83.302 357.483 50.168 357.704 50.168 359.058 83.302 375.065 83.302 404.111 22.177"/>
    <polyline fill="#1A1919" points="308.428 68.111 283.193 68.111 313.5 35.096 315.834 22.177 268.702 22.177 266 37.129 280.786 37.129 287.942 36.89 257.949 70.024 255.55 83.302 305.685 83.302 308.428 68.111"/>
    <path fill="#1A1919" d="M33.4245,65.957 C35.0995,80.072 45.9725,84.498 58.6445,84.498 C71.4285,84.498 88.8555,79.714 91.9005,62.847 C93.0895,56.268 91.2825,50.885 86.7055,47.297 C82.6885,44.306 77.0585,43.469 72.0755,42.751 C69.4725,42.393 65.0905,42.034 62.7745,41.316 C61.3945,40.957 59.6555,40.12 60.0015,38.206 C60.4765,35.574 65.9205,34.976 67.6995,34.976 C71.5895,34.976 75.7095,36.172 76.6205,40.359 L94.0315,36.89 C92.3265,25.406 81.8985,20.981 71.2275,20.981 C64.8905,20.981 58.3815,21.938 52.1545,25.646 C46.1705,29.234 41.7305,34.737 40.4775,41.675 C37.5395,57.943 51.2035,60.455 62.7735,62.249 C64.7315,62.488 72.1825,63.087 71.6205,66.197 C70.9725,69.785 64.7045,70.024 62.4815,70.024 C57.7015,70.024 51.7175,69.307 51.5525,63.445 L33.4245,65.957"/>
    <polyline fill="#1A1919" points="38.839 1.244 15.274 1.244 .454 83.302 24.02 83.302 38.839 1.244"/>
    <path fill="#1A1919" d="M234.8385 61.412C232.9995 66.675 229.8315 68.828 224.8295 68.828 218.1595 68.828 216.8005 64.043 218.3215 57.464L256.3385 57.464 256.9225 54.235C260.5515 34.139 251.3665 20.981 232.4695 20.981 224.3555 20.981 215.1445 23.971 208.1975 30.43 201.8035 36.292 197.1815 45.263 195.6915 53.517 194.1145 62.249 195.8255 70.623 200.8805 76.484 206.2265 82.584 213.9955 84.498 222.3325 84.498 235.7835 84.498 249.2425 77.68 255.3665 62.847L234.8385 61.412zM220.3715 45.503C221.1645 39.88 224.3845 34.976 230.1645 34.976 236.3895 34.976 237.3475 39.521 236.2665 45.503L220.3715 45.503 220.3715 45.503zM438.4365 61.412C436.5975 66.675 433.4295 68.828 428.4275 68.828 421.7575 68.828 420.3985 64.043 421.9195 57.464L459.9375 57.464 460.5195 54.235C464.1495 34.139 454.9645 20.981 436.0675 20.981 427.9525 20.981 418.7425 23.971 411.7955 30.43 405.4015 36.292 400.7795 45.263 399.2895 53.517 397.7115 62.249 399.4235 70.623 404.4795 76.484 409.8245 82.584 417.5935 84.498 425.9305 84.498 439.3805 84.498 452.8395 77.68 458.9645 62.847L438.4365 61.412zM423.9685 45.503C424.7615 39.88 427.9815 34.976 433.7625 34.976 439.9875 34.976 440.9445 39.521 439.8645 45.503L423.9685 45.503 423.9685 45.503z"/>
    <polyline fill="#00773E" points="198.325 0 176.315 0 161.495 82.058 183.506 82.058 198.325 0"/>
    <polyline fill="#00773E" points="403.658 20.933 388.207 20.933 374.913 50.838 373.2 20.933 356.748 20.933 344.344 50.838 344.122 50.838 342.185 20.933 320.288 20.933 327.589 82.058 343.375 82.058 357.029 48.924 357.252 48.924 358.603 82.058 374.611 82.058 403.658 20.933"/>
    <polyline fill="#00773E" points="307.974 66.867 282.74 66.867 313.046 33.852 315.38 20.933 268.248 20.933 265.548 35.886 280.332 35.886 287.49 35.646 257.495 68.781 255.096 82.058 305.231 82.058 307.974 66.867"/>
    <path fill="#00773E" d="M32.9705,64.714 C34.6455,78.829 45.5185,83.255 58.1905,83.255 C70.9745,83.255 88.4015,78.47 91.4475,61.604 C92.6355,55.025 90.8285,49.642 86.2515,46.053 C82.2345,43.063 76.6055,42.225 71.6215,41.508 C69.0185,41.149 64.6365,40.79 62.3205,40.072 C60.9405,39.713 59.2015,38.876 59.5475,36.962 C60.0225,34.331 65.4665,33.733 67.2455,33.733 C71.1355,33.733 75.2555,34.929 76.1665,39.115 L93.5785,35.646 C91.8725,24.163 81.4445,19.737 70.7735,19.737 C64.4365,19.737 57.9275,20.694 51.7005,24.402 C45.7165,27.991 41.2765,33.493 40.0235,40.431 C37.0855,56.699 50.7495,59.211 62.3195,61.005 C64.2775,61.245 71.7285,61.843 71.1665,64.953 C70.5185,68.542 64.2505,68.781 62.0275,68.781 C57.2475,68.781 51.2635,68.063 51.0985,62.202 L32.9705,64.714"/>
    <polyline fill="#00773E" points="38.386 0 14.819 0 0 82.058 23.567 82.058 38.386 0"/>
    <path fill="#00773E" d="M234.3855 60.168C232.5455 65.431 229.3775 67.585 224.3755 67.585 217.7055 67.585 216.3465 62.8 217.8685 56.221L255.8855 56.221 256.4685 52.991C260.0975 32.895 250.9125 19.737 232.0155 19.737 223.9015 19.737 214.6905 22.728 207.7435 29.187 201.3495 35.048 196.7275 44.02 195.2375 52.273 193.6605 61.005 195.3715 69.379 200.4275 75.24 205.7725 81.341 213.5415 83.255 221.8785 83.255 235.3295 83.255 248.7885 76.436 254.9125 61.604L234.3855 60.168zM219.9175 44.259C220.7105 38.637 223.9305 33.733 229.7105 33.733 235.9355 33.733 236.8935 38.278 235.8135 44.259L219.9175 44.259 219.9175 44.259zM437.9825 60.168C436.1435 65.431 432.9755 67.585 427.9725 67.585 421.3035 67.585 419.9445 62.8 421.4665 56.221L459.4825 56.221 460.0665 52.991C463.6955 32.895 454.5115 19.737 435.6135 19.737 427.4995 19.737 418.2885 22.728 411.3415 29.187 404.9475 35.048 400.3255 44.02 398.8355 52.273 397.2585 61.005 398.9695 69.379 404.0245 75.24 409.3705 81.341 417.1395 83.255 425.4765 83.255 438.9275 83.255 452.3865 76.436 458.5105 61.604L437.9825 60.168zM423.5155 44.259C424.3085 38.637 427.5285 33.733 433.3085 33.733 439.5335 33.733 440.4915 38.278 439.4115 44.259L423.5155 44.259 423.5155 44.259z"/>
    <path fill="#1A1919" d="M94.1625,52.4 C94.1625,52.4 105.4375,20.756 132.4445,20.756 C156.6785,20.756 165.3155,52.4 165.3155,52.4 C165.3155,52.4 153.9715,84.498 127.3525,84.498 C105.8925,84.498 96.9355,66.062 94.1625,52.4 Z M109.8325,52.585 C109.8325,52.585 116.0865,34.505 131.0675,34.505 C144.5105,34.505 149.3015,52.585 149.3015,52.585 C149.3015,52.585 143.0085,70.924 128.2425,70.924 C116.3395,70.924 111.3705,60.39 109.8325,52.585 Z M119.1685,53.366 C119.1685,46.994 124.1455,41.829 130.2845,41.829 C136.4245,41.829 141.4005,46.994 141.4005,53.366 C141.4005,59.737 136.4245,64.903 130.2845,64.903 C124.1455,64.903 119.1685,59.737 119.1685,53.366 L119.1685,53.366 Z"/>
    <path fill="#4D4E4C" d="M118.2365,52.466 C118.2365,46.094 123.2135,40.929 129.3525,40.929 C135.4925,40.929 140.4695,46.094 140.4695,52.466 C140.4695,58.837 135.4925,64.002 129.3525,64.002 C123.2135,64.002 118.2365,58.837 118.2365,52.466"/>
    <path fill="#00713A" d="M93.2305,51.499 C93.2305,51.499 104.5055,19.856 131.5125,19.856 C155.7475,19.856 164.3835,51.499 164.3835,51.499 C164.3835,51.499 153.0405,83.598 126.4205,83.598 C104.9615,83.598 96.0045,65.162 93.2305,51.499 Z M108.9005,51.684 C108.9005,51.684 115.1555,33.605 130.1355,33.605 C143.5785,33.605 148.3695,51.684 148.3695,51.684 C148.3695,51.684 142.0775,70.024 127.3115,70.024 C115.4075,70.024 110.4395,59.49 108.9005,51.684 L108.9005,51.684 Z"/>
  </g>
</svg>
